<svg width="505.8599609375px" height="193.61251220703124px" xmlns="http://www.w3.org/2000/svg" viewBox="-2.9299804687499886 -21.806256103515622 505.8599609375 193.61251220703124" style="background: rgba(0, 0, 0, 0);" preserveAspectRatio="xMidYMid"><defs><filter id="editing-raise" x="-100%" y="-100%" width="300%" height="300%"><feFlood flood-color="#ccc" result="flood-surface"></feFlood><feFlood flood-color="#777" result="flood-extrude"></feFlood><feMorphology operator="erode" in="SourceAlpha" radius="1" result="erode"></feMorphology><feConvolveMatrix in="erode" result="shadow" order="11,8" divisor="1" kernelMatrix="0 0 0 1 1 1 1 1 0 0 0 0 0 1 0 0 0 0 0 1 0 0 0 0 1 0 0 0 0 0 1 0 0 0 0 1 0 0 0 0 0 1 0 0 0 0 1 0 0 0 0 0 1 0 0 0 0 0 1 0 0 0 1 0 0 0 0 0 0 1 1 0 1 1 0 0 0 0 0 0 0 0 1 0 0 0 0 0"></feConvolveMatrix><feOffset dx="0" dy="4" in="shadow" result="offset"></feOffset><feGaussianBlur in="offset" stdDeviation="0.2" result="blur"></feGaussianBlur><feComposite operator="in" in="flood-extrude" in2="blur" result="extrude"></feComposite><feMorphology operator="erode" in="SourceAlpha" radius="1" result="erode2"></feMorphology><feConvolveMatrix in="erode2" result="out" order="4,4" divisor="1" kernelMatrix="0 1 1 0 1 0 0 1 1 0 0 1 0 1 1 0 "></feConvolveMatrix><feComposite operator="in" in="flood-surface" in2="out" result="text"></feComposite><feMerge><feMergeNode in="extrude"></feMergeNode><feMergeNode in="text"></feMergeNode></feMerge></filter></defs><g filter="url(#editing-raise)"><g transform="translate(68.555006980896, 115.09000015258789)"><path d="M54.30-63.09L21.19-63.09L21.19-40.43L51.27-40.43L51.27-32.42L21.19-32.42L21.19 0L9.28 0L9.28-71.97L54.30-71.97L54.30-63.09ZM77.93-55.08L77.93 0L66.02 0L66.02-55.08L77.93-55.08ZM79.00-72.66L79.00-72.66L79.00-72.66Q79.00-69.73 76.95-67.72L76.95-67.72L76.95-67.72Q74.90-65.72 71.97-65.72L71.97-65.72L71.97-65.72Q69.04-65.72 67.04-67.77L67.04-67.77L67.04-67.77Q65.04-69.82 65.04-72.66L65.04-72.66L65.04-72.66Q65.04-75.59 67.09-77.64L67.09-77.64L67.09-77.64Q69.14-79.69 71.97-79.69L71.97-79.69L71.97-79.69Q74.90-79.69 76.95-77.64L76.95-77.64L76.95-77.64Q79.00-75.59 79.00-72.66ZM140.14-1.95L140.14 0L128.22 0L128.22-29.98L128.22-29.98Q128.22-33.30 127.93-36.33L127.93-36.33L127.93-36.33Q127.64-39.36 126.56-41.70L126.56-41.70L126.56-41.70Q125.49-44.04 123.63-45.36L123.63-45.36L123.63-45.36Q121.78-46.68 118.46-46.68L118.46-46.68L118.46-46.68Q117.38-46.68 115.67-46.39L115.67-46.39L115.67-46.39Q113.96-46.09 112.16-45.51L112.16-45.51L112.16-45.51Q110.35-44.92 108.74-44.04L108.74-44.04L108.74-44.04Q107.13-43.16 106.35-41.99L106.35-41.99L106.35-41.41L106.35-41.21L106.35-19.53L106.35-19.34L106.35 0L94.53 0L94.53-55.08L105.08-55.08L106.35-49.51L106.35-49.51Q107.52-50.59 109.33-51.71L109.33-51.71L109.33-51.71Q111.13-52.83 113.28-53.71L113.28-53.71L113.28-53.71Q115.43-54.59 117.68-55.13L117.68-55.13L117.68-55.13Q119.92-55.66 122.07-55.66L122.07-55.66L122.07-55.66Q126.46-55.66 129.49-53.81L129.49-53.81L129.49-53.81Q132.52-51.95 135.55-49.02L135.55-49.02L135.55-49.02Q137.21-47.36 138.13-45.17L138.13-45.17L138.13-45.17Q139.06-42.97 139.50-40.58L139.50-40.58L139.50-40.58Q139.94-38.18 140.04-35.74L140.04-35.74L140.04-35.74Q140.14-33.30 140.14-30.96L140.14-30.96L140.14-1.95ZM172.17-47.07L172.17-16.70L172.17-16.70Q172.17-13.38 173.05-11.52L173.05-11.52L173.05-11.52Q173.93-9.67 175.54-8.69L175.54-8.69L175.54-8.69Q177.15-7.71 179.15-7.47L179.15-7.47L179.15-7.47Q181.15-7.23 183.40-7.23L183.40-7.23L183.40 0L183.40 0Q182.13 0.20 180.86 0.29L180.86 0.29L180.86 0.29Q179.79 0.39 178.27 0.44L178.27 0.44L178.27 0.44Q176.76 0.49 175.29 0.49L175.29 0.49L175.29 0.49Q173.83 0.49 172.31 0.39L172.31 0.39L172.31 0.39Q170.80 0.29 169.73 0.10L169.73 0.10L169.73 0.10Q166.41-0.49 164.55-2.78L164.55-2.78L164.55-2.78Q162.70-5.08 161.77-7.86L161.77-7.86L161.77-7.86Q160.84-10.64 160.60-13.28L160.60-13.28L160.60-13.28Q160.35-15.92 160.35-17.38L160.35-17.38L160.35-47.07L153.13-47.07L153.13-55.08L160.35-55.08L160.35-70.70L172.17-70.70L172.17-55.08L180.96-55.08L180.96-47.07L172.17-47.07ZM237.21-29.79L237.21-17.09L237.21-16.31L237.21-16.31Q237.21-15.53 237.30-14.01L237.30-14.01L237.30-14.01Q237.40-12.50 237.70-10.94L237.70-10.94L237.70-10.94Q237.99-9.38 238.62-8.11L238.62-8.11L238.62-8.11Q239.26-6.84 240.33-6.45L240.33-6.45L237.21 0.10L237.21 0.10Q235.94 0.10 234.52-0.49L234.52-0.49L234.52-0.49Q233.11-1.07 231.79-2.15L231.79-2.15L231.79-2.15Q230.47-3.22 229.54-4.54L229.54-4.54L229.54-4.54Q228.61-5.86 228.13-7.42L228.13-7.42L228.13-7.42Q227.44-5.76 225.73-4.35L225.73-4.35L225.73-4.35Q224.02-2.93 221.88-1.81L221.88-1.81L221.88-1.81Q219.73-0.68 217.24-0.10L217.24-0.10L217.24-0.10Q214.75 0.49 212.60 0.49L212.60 0.49L212.60 0.49Q209.28 0.49 206.20-0.39L206.20-0.39L206.20-0.39Q203.13-1.27 200.78-3.22L200.78-3.22L200.78-3.22Q198.44-5.18 197.12-8.40L197.12-8.40L197.12-8.40Q195.80-11.62 195.80-16.31L195.80-16.31L195.80-16.31Q195.80-20.80 197.71-24.07L197.71-24.07L197.71-24.07Q199.61-27.34 202.59-29.44L202.59-29.44L202.59-29.44Q205.57-31.54 209.38-32.57L209.38-32.57L209.38-32.57Q213.18-33.59 217.09-33.59L217.09-33.59L225.39-33.59L225.39-33.59Q225.39-38.38 224.90-41.21L224.90-41.21L224.90-41.21Q224.41-44.04 223.24-45.36L223.24-45.36L223.24-45.36Q222.07-46.68 220.36-47.02L220.36-47.02L220.36-47.02Q218.65-47.36 216.31-47.36L216.31-47.36L216.31-47.36Q214.16-47.36 212.26-46.83L212.26-46.83L212.26-46.83Q210.35-46.29 208.74-45.56L208.74-45.56L208.74-45.56Q207.13-44.82 205.91-43.95L205.91-43.95L205.91-43.95Q204.69-43.07 204.10-42.58L204.10-42.58L199.71-49.32L199.71-49.32Q200.68-50.39 202.64-51.51L202.64-51.51L202.64-51.51Q204.59-52.64 207.13-53.52L207.13-53.52L207.13-53.52Q209.67-54.39 212.65-54.93L212.65-54.93L212.65-54.93Q215.63-55.47 218.85-55.47L218.85-55.47L218.85-55.47Q221.78-55.47 224.56-54.88L224.56-54.88L224.56-54.88Q227.34-54.30 229.64-52.93L229.64-52.93L229.64-52.93Q231.93-51.56 233.64-49.27L233.64-49.27L233.64-49.27Q235.35-46.97 236.04-43.55L236.04-43.55L236.04-43.55Q236.72-40.14 236.96-36.67L236.96-36.67L236.96-36.67Q237.21-33.20 237.21-29.79L237.21-29.79ZM225.49-13.18L225.49-26.66L219.24-26.66L219.24-26.66Q217.29-26.66 215.14-26.27L215.14-26.27L215.14-26.27Q212.99-25.88 211.13-24.80L211.13-24.80L211.13-24.80Q209.28-23.73 208.06-21.73L208.06-21.73L208.06-21.73Q206.84-19.73 206.84-16.60L206.84-16.60L206.84-16.60Q206.84-11.72 209.03-9.57L209.03-9.57L209.03-9.57Q211.23-7.42 215.43-7.42L215.43-7.42L215.43-7.42Q218.36-7.42 221.04-8.98L221.04-8.98L221.04-8.98Q223.73-10.55 225.49-13.18L225.49-13.18ZM254.79-4.39L254.79-4.39L259.77-12.30L259.77-12.30Q261.72-10.94 264.40-9.77L264.40-9.77L264.40-9.77Q267.09-8.59 271.19-8.59L271.19-8.59L271.19-8.59Q276.56-8.59 279.59-10.25L279.59-10.25L279.59-10.25Q282.62-11.91 282.62-15.14L282.62-15.14L282.62-15.14Q282.62-17.48 280.86-18.90L280.86-18.90L280.86-18.90Q279.10-20.31 276.42-21.34L276.42-21.34L276.42-21.34Q273.73-22.36 270.65-23.29L270.65-23.29L270.65-23.29Q267.58-24.22 264.94-25.59L264.94-25.59L264.94-25.59Q259.77-28.32 257.18-31.35L257.18-31.35L257.18-31.35Q254.59-34.38 254.59-39.36L254.59-39.36L254.59-39.36Q254.59-43.46 256.30-46.58L256.30-46.58L256.30-46.58Q258.01-49.71 260.74-51.81L260.74-51.81L260.74-51.81Q263.48-53.91 266.99-54.98L266.99-54.98L266.99-54.98Q270.51-56.05 274.12-56.05L274.12-56.05L274.12-56.05Q279.00-56.05 283.11-55.03L283.11-55.03L283.11-55.03Q287.21-54.00 291.02-51.56L291.02-51.56L287.21-43.46L287.21-43.46Q284.28-45.12 280.86-45.75L280.86-45.75L280.86-45.75Q277.44-46.39 274.12-46.39L274.12-46.39L274.12-46.39Q270.51-46.39 268.41-44.78L268.41-44.78L268.41-44.78Q266.31-43.16 266.31-39.75L266.31-39.75L266.31-39.75Q266.31-37.11 268.21-35.60L268.21-35.60L268.21-35.60Q270.12-34.08 273.14-32.91L273.14-32.91L273.14-32.91Q276.17-31.74 279.59-30.57L279.59-30.57L279.59-30.57Q283.01-29.39 285.99-27.59L285.99-27.59L285.99-27.59Q288.96-25.78 290.92-23.05L290.92-23.05L290.92-23.05Q292.87-20.31 292.87-16.02L292.87-16.02L292.87-16.02Q292.87-11.82 291.21-8.69L291.21-8.69L291.21-8.69Q289.55-5.57 286.72-3.52L286.72-3.52L286.72-3.52Q283.89-1.46 280.18-0.49L280.18-0.49L280.18-0.49Q276.46 0.49 272.27 0.49L272.27 0.49L272.27 0.49Q269.73 0.49 267.58 0.34L267.58 0.34L267.58 0.34Q265.43 0.20 263.38-0.29L263.38-0.29L263.38-0.29Q261.33-0.78 259.28-1.76L259.28-1.76L259.28-1.76Q257.23-2.73 254.79-4.39ZM353.61 0L340.14 0L320.12-26.37L320.12 0L308.20 0L308.20-75.88L320.12-75.88L320.12-28.81L337.79-55.08L351.07-55.08L331.74-27.64L353.61 0Z"></path></g></g><style>text {
  font-size: 64px;
  font-family: Arial Black;
  dominant-baseline: central;
  text-anchor: middle;
}</style></svg>