<svg width="330.93004150390624px" height="131.2224914550781px" xmlns="http://www.w3.org/2000/svg" viewBox="84.53497924804688 9.388754272460943 330.93004150390624 131.2224914550781" style="background: rgba(0, 0, 0, 0);" preserveAspectRatio="xMidYMid"><defs><filter id="editing-raise" x="-100%" y="-100%" width="300%" height="300%"><feFlood flood-color="#ccc" result="flood-surface"></feFlood><feFlood flood-color="#777" result="flood-extrude"></feFlood><feMorphology operator="erode" in="SourceAlpha" radius="1" result="erode"></feMorphology><feConvolveMatrix in="erode" result="shadow" order="11,8" divisor="1" kernelMatrix="0 0 0 1 1 1 1 1 0 0 0 0 0 1 0 0 0 0 0 1 0 0 0 0 1 0 0 0 0 0 1 0 0 0 0 1 0 0 0 0 0 1 0 0 0 0 1 0 0 0 0 0 1 0 0 0 0 0 1 0 0 0 1 0 0 0 0 0 0 1 1 0 1 1 0 0 0 0 0 0 0 0 1 0 0 0 0 0"></feConvolveMatrix><feOffset dx="0" dy="4" in="shadow" result="offset"></feOffset><feGaussianBlur in="offset" stdDeviation="0.2" result="blur"></feGaussianBlur><feComposite operator="in" in="flood-extrude" in2="blur" result="extrude"></feComposite><feMorphology operator="erode" in="SourceAlpha" radius="1" result="erode2"></feMorphology><feConvolveMatrix in="erode2" result="out" order="4,4" divisor="1" kernelMatrix="0 1 1 0 1 0 0 1 1 0 0 1 0 1 1 0 "></feConvolveMatrix><feComposite operator="in" in="flood-surface" in2="out" result="text"></feComposite><feMerge><feMergeNode in="extrude"></feMergeNode><feMergeNode in="text"></feMergeNode></feMerge></filter></defs><g filter="url(#editing-raise)"><g transform="translate(133.8750023841858, 100.65500068664551)"><path d="M34.75-40.38L13.56-40.38L13.56-25.88L32.81-25.88L32.81-20.75L13.56-20.75L13.56 0L5.94 0L5.94-46.06L34.75-46.06L34.75-40.38ZM49.88-35.25L49.88 0L42.25 0L42.25-35.25L49.88-35.25ZM50.56-46.50L50.56-46.50L50.56-46.50Q50.56-44.63 49.25-43.34L49.25-43.34L49.25-43.34Q47.94-42.06 46.06-42.06L46.06-42.06L46.06-42.06Q44.19-42.06 42.91-43.38L42.91-43.38L42.91-43.38Q41.63-44.69 41.63-46.50L41.63-46.50L41.63-46.50Q41.63-48.38 42.94-49.69L42.94-49.69L42.94-49.69Q44.25-51 46.06-51L46.06-51L46.06-51Q47.94-51 49.25-49.69L49.25-49.69L49.25-49.69Q50.56-48.38 50.56-46.50ZM89.69-1.25L89.69 0L82.06 0L82.06-19.19L82.06-19.19Q82.06-21.31 81.88-23.25L81.88-23.25L81.88-23.25Q81.69-25.19 81-26.69L81-26.69L81-26.69Q80.31-28.19 79.13-29.03L79.13-29.03L79.13-29.03Q77.94-29.88 75.81-29.88L75.81-29.88L75.81-29.88Q75.13-29.88 74.03-29.69L74.03-29.69L74.03-29.69Q72.94-29.50 71.78-29.13L71.78-29.13L71.78-29.13Q70.63-28.75 69.59-28.19L69.59-28.19L69.59-28.19Q68.56-27.63 68.06-26.88L68.06-26.88L68.06-26.50L68.06-26.38L68.06-12.50L68.06-12.38L68.06 0L60.50 0L60.50-35.25L67.25-35.25L68.06-31.69L68.06-31.69Q68.81-32.38 69.97-33.09L69.97-33.09L69.97-33.09Q71.13-33.81 72.50-34.38L72.50-34.38L72.50-34.38Q73.88-34.94 75.31-35.28L75.31-35.28L75.31-35.28Q76.75-35.63 78.13-35.63L78.13-35.63L78.13-35.63Q80.94-35.63 82.88-34.44L82.88-34.44L82.88-34.44Q84.81-33.25 86.75-31.38L86.75-31.38L86.75-31.38Q87.81-30.31 88.41-28.91L88.41-28.91L88.41-28.91Q89-27.50 89.28-25.97L89.28-25.97L89.28-25.97Q89.56-24.44 89.63-22.88L89.63-22.88L89.63-22.88Q89.69-21.31 89.69-19.81L89.69-19.81L89.69-1.25ZM110.19-30.13L110.19-10.69L110.19-10.69Q110.19-8.56 110.75-7.38L110.75-7.38L110.75-7.38Q111.31-6.19 112.34-5.56L112.34-5.56L112.34-5.56Q113.38-4.94 114.66-4.78L114.66-4.78L114.66-4.78Q115.94-4.63 117.38-4.63L117.38-4.63L117.38 0L117.38 0Q116.56 0.13 115.75 0.19L115.75 0.19L115.75 0.19Q115.06 0.25 114.09 0.28L114.09 0.28L114.09 0.28Q113.13 0.31 112.19 0.31L112.19 0.31L112.19 0.31Q111.25 0.31 110.28 0.25L110.28 0.25L110.28 0.25Q109.31 0.19 108.63 0.06L108.63 0.06L108.63 0.06Q106.50-0.31 105.31-1.78L105.31-1.78L105.31-1.78Q104.13-3.25 103.53-5.03L103.53-5.03L103.53-5.03Q102.94-6.81 102.78-8.50L102.78-8.50L102.78-8.50Q102.63-10.19 102.63-11.13L102.63-11.13L102.63-30.13L98-30.13L98-35.25L102.63-35.25L102.63-45.25L110.19-45.25L110.19-35.25L115.81-35.25L115.81-30.13L110.19-30.13ZM151.81-19.06L151.81-10.94L151.81-10.44L151.81-10.44Q151.81-9.94 151.88-8.97L151.88-8.97L151.88-8.97Q151.94-8 152.13-7L152.13-7L152.13-7Q152.31-6 152.72-5.19L152.72-5.19L152.72-5.19Q153.13-4.38 153.81-4.13L153.81-4.13L151.81 0.06L151.81 0.06Q151 0.06 150.09-0.31L150.09-0.31L150.09-0.31Q149.19-0.69 148.34-1.38L148.34-1.38L148.34-1.38Q147.50-2.06 146.91-2.91L146.91-2.91L146.91-2.91Q146.31-3.75 146-4.75L146-4.75L146-4.75Q145.56-3.69 144.47-2.78L144.47-2.78L144.47-2.78Q143.38-1.88 142-1.16L142-1.16L142-1.16Q140.63-0.44 139.03-0.06L139.03-0.06L139.03-0.06Q137.44 0.31 136.06 0.31L136.06 0.31L136.06 0.31Q133.94 0.31 131.97-0.25L131.97-0.25L131.97-0.25Q130-0.81 128.50-2.06L128.50-2.06L128.50-2.06Q127-3.31 126.16-5.38L126.16-5.38L126.16-5.38Q125.31-7.44 125.31-10.44L125.31-10.44L125.31-10.44Q125.31-13.31 126.53-15.41L126.53-15.41L126.53-15.41Q127.75-17.50 129.66-18.84L129.66-18.84L129.66-18.84Q131.56-20.19 134-20.84L134-20.84L134-20.84Q136.44-21.50 138.94-21.50L138.94-21.50L144.25-21.50L144.25-21.50Q144.25-24.56 143.94-26.38L143.94-26.38L143.94-26.38Q143.63-28.19 142.88-29.03L142.88-29.03L142.88-29.03Q142.13-29.88 141.03-30.09L141.03-30.09L141.03-30.09Q139.94-30.31 138.44-30.31L138.44-30.31L138.44-30.31Q137.06-30.31 135.84-29.97L135.84-29.97L135.84-29.97Q134.63-29.63 133.59-29.16L133.59-29.16L133.59-29.16Q132.56-28.69 131.78-28.13L131.78-28.13L131.78-28.13Q131-27.56 130.63-27.25L130.63-27.25L127.81-31.56L127.81-31.56Q128.44-32.25 129.69-32.97L129.69-32.97L129.69-32.97Q130.94-33.69 132.56-34.25L132.56-34.25L132.56-34.25Q134.19-34.81 136.09-35.16L136.09-35.16L136.09-35.16Q138-35.50 140.06-35.50L140.06-35.50L140.06-35.50Q141.94-35.50 143.72-35.13L143.72-35.13L143.72-35.13Q145.50-34.75 146.97-33.88L146.97-33.88L146.97-33.88Q148.44-33 149.53-31.53L149.53-31.53L149.53-31.53Q150.63-30.06 151.06-27.88L151.06-27.88L151.06-27.88Q151.50-25.69 151.66-23.47L151.66-23.47L151.66-23.47Q151.81-21.25 151.81-19.06L151.81-19.06ZM144.31-8.44L144.31-17.06L140.31-17.06L140.31-17.06Q139.06-17.06 137.69-16.81L137.69-16.81L137.69-16.81Q136.31-16.56 135.13-15.88L135.13-15.88L135.13-15.88Q133.94-15.19 133.16-13.91L133.16-13.91L133.16-13.91Q132.38-12.63 132.38-10.63L132.38-10.63L132.38-10.63Q132.38-7.50 133.78-6.13L133.78-6.13L133.78-6.13Q135.19-4.75 137.88-4.75L137.88-4.75L137.88-4.75Q139.75-4.75 141.47-5.75L141.47-5.75L141.47-5.75Q143.19-6.75 144.31-8.44L144.31-8.44ZM163.06-2.81L163.06-2.81L166.25-7.88L166.25-7.88Q167.50-7 169.22-6.25L169.22-6.25L169.22-6.25Q170.94-5.50 173.56-5.50L173.56-5.50L173.56-5.50Q177-5.50 178.94-6.56L178.94-6.56L178.94-6.56Q180.88-7.63 180.88-9.69L180.88-9.69L180.88-9.69Q180.88-11.19 179.75-12.09L179.75-12.09L179.75-12.09Q178.63-13 176.91-13.66L176.91-13.66L176.91-13.66Q175.19-14.31 173.22-14.91L173.22-14.91L173.22-14.91Q171.25-15.50 169.56-16.38L169.56-16.38L169.56-16.38Q166.25-18.13 164.59-20.06L164.59-20.06L164.59-20.06Q162.94-22 162.94-25.19L162.94-25.19L162.94-25.19Q162.94-27.81 164.03-29.81L164.03-29.81L164.03-29.81Q165.13-31.81 166.88-33.16L166.88-33.16L166.88-33.16Q168.63-34.50 170.88-35.19L170.88-35.19L170.88-35.19Q173.13-35.88 175.44-35.88L175.44-35.88L175.44-35.88Q178.56-35.88 181.19-35.22L181.19-35.22L181.19-35.22Q183.81-34.56 186.25-33L186.25-33L183.81-27.81L183.81-27.81Q181.94-28.88 179.75-29.28L179.75-29.28L179.75-29.28Q177.56-29.69 175.44-29.69L175.44-29.69L175.44-29.69Q173.13-29.69 171.78-28.66L171.78-28.66L171.78-28.66Q170.44-27.63 170.44-25.44L170.44-25.44L170.44-25.44Q170.44-23.75 171.66-22.78L171.66-22.78L171.66-22.78Q172.88-21.81 174.81-21.06L174.81-21.06L174.81-21.06Q176.75-20.31 178.94-19.56L178.94-19.56L178.94-19.56Q181.13-18.81 183.03-17.66L183.03-17.66L183.03-17.66Q184.94-16.50 186.19-14.75L186.19-14.75L186.19-14.75Q187.44-13 187.44-10.25L187.44-10.25L187.44-10.25Q187.44-7.56 186.38-5.56L186.38-5.56L186.38-5.56Q185.31-3.56 183.50-2.25L183.50-2.25L183.50-2.25Q181.69-0.94 179.31-0.31L179.31-0.31L179.31-0.31Q176.94 0.31 174.25 0.31L174.25 0.31L174.25 0.31Q172.63 0.31 171.25 0.22L171.25 0.22L171.25 0.22Q169.88 0.13 168.56-0.19L168.56-0.19L168.56-0.19Q167.25-0.50 165.94-1.13L165.94-1.13L165.94-1.13Q164.63-1.75 163.06-2.81ZM226.31 0L217.69 0L204.88-16.88L204.88 0L197.25 0L197.25-48.56L204.88-48.56L204.88-18.44L216.19-35.25L224.69-35.25L212.31-17.69L226.31 0Z"></path></g></g><style>text {
  font-size: 64px;
  font-family: Arial Black;
  dominant-baseline: central;
  text-anchor: middle;
}</style></svg>